<svg width="92" height="92" viewBox="0 0 92 92" fill="#88b4ff" xmlns="http://www.w3.org/2000/svg">
<path d="M83.3542 16.6667V8.33333H75.0208V0H66.6833V8.33333H58.35V0H50.0125V8.33333H41.6792V0H33.3375V8.33333H25.0042V0H16.6667V8.33333H8.33333V16.6667H0V25.0042H8.33333V33.3375H0V41.675H8.33333V50.0083H0V58.3458H8.33333V66.6792H0V75.0167H8.33333V83.35H16.6667V91.6875H25.0042V83.3542H33.3375V91.6875H41.675V83.3542H50.0083V91.6875H58.3458V83.3542H66.6792V91.6875H75.0167V83.3542H83.35V75.0208H91.6875V66.6833H83.3542V58.35H91.6875V50.0125H83.3542V41.6792H91.6875V33.3375H83.3542V25.0042H91.6875V16.6667H83.3542ZM75.0208 75.0167H16.6667V16.6708H75.0125L75.0208 75.0167Z" />
<path d="M66.6836 25.0042L66.6787 66.6829H25V25.0042H66.6836ZM28.6084 35.8411L34.416 45.2952L28.498 54.7502H33.0771L36.9551 48.2961H37.1025L40.9805 54.7502H45.5791L39.6787 45.2952L45.4492 35.8411H40.9346L37.1025 42.2854H36.9551L33.1416 35.8411H28.6084ZM47.9795 35.8411V54.7502H51.9775V48.0471H54.8955L58.4775 54.7502H62.8906L58.877 47.3997C58.9346 47.3747 58.9935 47.3529 59.0498 47.3264C60.0777 46.8463 60.8627 46.1567 61.4043 45.2581C61.9458 44.3533 62.2168 43.2733 62.2168 42.0178C62.2168 40.7683 61.9486 39.6814 61.4131 38.7581C60.8837 37.8288 60.1111 37.1123 59.0957 36.6077C58.0862 36.0968 56.8675 35.8411 55.4395 35.8411H47.9795ZM54.6729 39.1096C55.4423 39.1096 56.0802 39.2237 56.585 39.4514C57.0956 39.673 57.4736 39.9992 57.7197 40.4299C57.9721 40.8608 58.0986 41.39 58.0986 42.0178C58.0986 42.6395 57.9721 43.1598 57.7197 43.5784C57.4735 43.9967 57.0983 44.3106 56.5938 44.5198C56.089 44.7291 55.4547 44.8342 54.6914 44.8342H51.9775V39.1096H54.6729Z" />
</svg>
