<svg xmlns="http://www.w3.org/2000/svg" width="1000" height="625" viewBox="0 0 1000 625"><defs><pattern id="dots" width="26" height="26" patternUnits="userSpaceOnUse"><circle cx="2" cy="2" r="1" fill="#7889ae" opacity=".14"/></pattern><filter id="shadow" x="-25%" y="-25%" width="150%" height="160%"><feDropShadow dx="0" dy="12" stdDeviation="16" flood-color="#7889ae" flood-opacity=".09"/></filter></defs><rect width="1000" height="625" fill="#eef0f7"/><rect width="1000" height="625" fill="url(#dots)"/><circle cx="870" cy="120" r="190" fill="white" opacity=".25"/><g fill="none" stroke="#7889ae" stroke-width="1.5" opacity=".22"><path d="M40 93V40h53M907 40h53v53M40 532v53h53M907 585h53v-53"/></g><text x="69" y="82" font-family="Arial,sans-serif" fill="#7889ae" font-size="14" letter-spacing="3">AI / ASSISTANT REPRESENTATIONS</text><g fill="#f9faff" stroke="#aab6d5" stroke-width="2"><rect x="170" y="169" width="190" height="237" rx="20"/><rect x="405" y="142" width="190" height="286" rx="20"/><rect x="640" y="169" width="190" height="237" rx="20"/></g><g transform="translate(500 284) scale(1.15)"><circle cy="-17" r="19" fill="#8a9cc4"/><path d="M-37 57V25Q-37 5-15 5H15Q37 5 37 25V57" fill="#8a9cc4"/></g><circle cx="265" cy="273" r="42" fill="#d4dcf1" stroke="#96a7cc" stroke-width="2"/><circle cx="265" cy="273" r="18" fill="#99aed4"/><rect x="681" y="237" width="108" height="70" rx="25" fill="#b6c4e2"/><g fill="#6b80aa"><circle cx="711" cy="272" r="7"/><circle cx="758" cy="272" r="7"/></g><path d="M265 347h0M468 387h64M702 348h66" stroke="#c5d0e7" stroke-width="7" stroke-linecap="round"/><text x="69" y="554" font-family="Arial,sans-serif" fill="#7889ae" opacity=".6" font-size="11" letter-spacing="2">DUY-NAM LY / PROJECT EXPLORATIONS</text></svg>