<svg xmlns="http://www.w3.org/2000/svg" width="1000" height="625" viewBox="0 0 1000 625"><defs><pattern id="dots" width="26" height="26" patternUnits="userSpaceOnUse"><circle cx="2" cy="2" r="1" fill="#8b8c73" opacity=".14"/></pattern><filter id="shadow" x="-25%" y="-25%" width="150%" height="160%"><feDropShadow dx="0" dy="12" stdDeviation="16" flood-color="#8b8c73" flood-opacity=".09"/></filter></defs><rect width="1000" height="625" fill="#f2f1e8"/><rect width="1000" height="625" fill="url(#dots)"/><circle cx="870" cy="120" r="190" fill="white" opacity=".25"/><g fill="none" stroke="#8b8c73" stroke-width="1.5" opacity=".22"><path d="M40 93V40h53M907 40h53v53M40 532v53h53M907 585h53v-53"/></g><text x="69" y="82" font-family="Arial,sans-serif" fill="#8b8c73" font-size="14" letter-spacing="3">INTERACTIVE CONCEPT TRANSFER</text><path d="M280 307H729" stroke="#a4a18d" stroke-width="2" stroke-dasharray="6 8"/><g stroke="#9b9d83" stroke-width="2"><rect x="187" y="191" width="177" height="218" rx="14" fill="#fdfcf4"/><rect x="420" y="172" width="177" height="251" rx="14" fill="#fdfcf4"/><rect x="653" y="191" width="177" height="218" rx="14" fill="#fdfcf4"/></g><g fill="#b8b993"><path d="m231 338 10-82h70l10 82Z"/><path d="M455 344v-81l54-32 55 32v81Z"/><path d="M696 345v-62q0-53 46-53t46 53v62Z"/></g><g fill="#838a70"><circle cx="276" cy="308" r="16"/><circle cx="509" cy="311" r="16"/><circle cx="742" cy="311" r="16"/></g><g fill="#d5d4b9"><rect x="246" y="373" width="61" height="6" rx="3"/><rect x="479" y="387" width="61" height="6" rx="3"/><rect x="712" y="373" width="61" height="6" rx="3"/></g><text x="69" y="554" font-family="Arial,sans-serif" fill="#8b8c73" opacity=".6" font-size="11" letter-spacing="2">DUY-NAM LY / PROJECT EXPLORATIONS</text></svg>