<svg xmlns="http://www.w3.org/2000/svg" width="1000" height="625" viewBox="0 0 1000 625"><defs><pattern id="dots" width="26" height="26" patternUnits="userSpaceOnUse"><circle cx="2" cy="2" r="1" fill="#5e8a9c" opacity=".14"/></pattern><filter id="shadow" x="-25%" y="-25%" width="150%" height="160%"><feDropShadow dx="0" dy="12" stdDeviation="16" flood-color="#5e8a9c" flood-opacity=".09"/></filter></defs><rect width="1000" height="625" fill="#eaf2f4"/><rect width="1000" height="625" fill="url(#dots)"/><circle cx="870" cy="120" r="190" fill="white" opacity=".25"/><g fill="none" stroke="#5e8a9c" stroke-width="1.5" opacity=".22"><path d="M40 93V40h53M907 40h53v53M40 532v53h53M907 585h53v-53"/></g><text x="69" y="82" font-family="Arial,sans-serif" fill="#5e8a9c" font-size="14" letter-spacing="3">PUBLIC MIXED REALITY</text><g filter="url(#shadow)"><rect x="277" y="138" width="446" height="222" rx="19" fill="#f9fbfd" stroke="#86a6b7" stroke-width="2"/><path d="m415 234 74-42 74 42v73l-74 42-74-42Z" fill="#bbd3dc" stroke="#7c9eaf" stroke-width="2"/><path d="m415 234 74 40 74-40M489 274v75" fill="none" stroke="#7c9eaf" stroke-width="2"/></g><path d="M305 445 500 320 695 445" stroke="#a8c4d2" stroke-width="2" stroke-dasharray="6 8" fill="none"/><g transform="translate(302 425) scale(0.85)"><circle cy="-17" r="19" fill="#779bab"/><path d="M-37 57V25Q-37 5-15 5H15Q37 5 37 25V57" fill="#779bab"/></g><g transform="translate(504 441) scale(0.85)"><circle cy="-17" r="19" fill="#a2bfca"/><path d="M-37 57V25Q-37 5-15 5H15Q37 5 37 25V57" fill="#a2bfca"/></g><g transform="translate(698 425) scale(0.85)"><circle cy="-17" r="19" fill="#527e94"/><path d="M-37 57V25Q-37 5-15 5H15Q37 5 37 25V57" fill="#527e94"/></g><text x="69" y="554" font-family="Arial,sans-serif" fill="#5e8a9c" opacity=".6" font-size="11" letter-spacing="2">DUY-NAM LY / PROJECT EXPLORATIONS</text></svg>